<?xml version="1.0" encoding="UTF-8"?>
<svg xmlns="http://www.w3.org/2000/svg" width="24" height="24" viewBox="0 0 24 24" role="img" aria-label="GitHub">
  <path fill="#111" d="M12 .5C5.73.5.5 5.73.5 12c0 5.08 3.29 9.38 7.86 10.9.58.11.79-.25.79-.56 0-.28-.01-1.02-.02-2-3.2.7-3.88-1.38-3.88-1.38-.53-1.34-1.28-1.7-1.28-1.7-1.05-.72.08-.71.08-.71 1.16.08 1.77 1.19 1.77 1.19 1.03 1.76 2.7 1.25 3.36.96.1-.75.4-1.25.72-1.54-2.56-.29-5.26-1.28-5.26-5.7 0-1.26.45-2.29 1.19-3.1-.12-.29-.52-1.46.11-3.05 0 0 .97-.31 3.18 1.18a11.03 11.03 0 012.9-.39c.98 0 1.97.13 2.9.39 2.2-1.49 3.17-1.18 3.17-1.18.63 1.59.23 2.76.11 3.05.74.81 1.19 1.84 1.19 3.1 0 4.43-2.7 5.4-5.28 5.68.41.36.78 1.08.78 2.18 0 1.58-.01 2.85-.01 3.24 0 .31.21.68.8.56A11.51 11.51 0 0023.5 12C23.5 5.73 18.27.5 12 .5z"/>
</svg>
